<svg xmlns="http://www.w3.org/2000/svg" viewBox="0 0 1200 720" role="img" aria-labelledby="title desc">
  <title id="title">Workshop colaborativo</title>
  <desc id="desc">Mesa de trabalho com notebook, materiais e pessoas colaborando.</desc>
  <defs>
    <linearGradient id="bg" x1="0" x2="1" y1="0" y2="1">
      <stop offset="0" stop-color="#0f766e"/>
      <stop offset=".45" stop-color="#111827"/>
      <stop offset="1" stop-color="#7c2d12"/>
    </linearGradient>
    <linearGradient id="table" x1="0" x2="1">
      <stop offset="0" stop-color="#1e293b"/>
      <stop offset="1" stop-color="#334155"/>
    </linearGradient>
  </defs>
  <rect width="1200" height="720" fill="url(#bg)"/>
  <circle cx="1030" cy="110" r="125" fill="#f97316" opacity=".18"/>
  <circle cx="180" cy="155" r="90" fill="#38bdf8" opacity=".16"/>
  <rect x="140" y="180" width="920" height="390" rx="52" fill="url(#table)" stroke="#475569" stroke-width="3"/>
  <rect x="390" y="222" width="420" height="250" rx="18" fill="#020617"/>
  <rect x="424" y="252" width="352" height="180" rx="12" fill="#172554"/>
  <rect x="455" y="282" width="156" height="18" rx="9" fill="#38bdf8"/>
  <rect x="455" y="322" width="290" height="16" rx="8" fill="#64748b"/>
  <rect x="455" y="354" width="238" height="16" rx="8" fill="#64748b"/>
  <rect x="520" y="498" width="160" height="26" rx="13" fill="#0f172a"/>
  <rect x="200" y="250" width="124" height="164" rx="18" fill="#facc15"/>
  <rect x="218" y="278" width="88" height="14" rx="7" fill="#78350f" opacity=".35"/>
  <rect x="218" y="314" width="68" height="14" rx="7" fill="#78350f" opacity=".28"/>
  <rect x="850" y="250" width="126" height="126" rx="24" fill="#14b8a6"/>
  <path d="M876 316h74M913 279v74" stroke="#ecfeff" stroke-width="14" stroke-linecap="round"/>
  <g fill="#0f172a">
    <circle cx="250" cy="615" r="42"/>
    <circle cx="420" cy="628" r="36"/>
    <circle cx="790" cy="628" r="36"/>
    <circle cx="955" cy="615" r="42"/>
  </g>
  <g stroke="#e2e8f0" stroke-linecap="round" stroke-width="16">
    <path d="M278 570c48-42 102-58 162-46"/>
    <path d="M922 570c-48-42-102-58-162-46"/>
  </g>
  <path d="M145 110h160M895 112h160M98 468h150M960 500h142" stroke="#f8fafc" stroke-width="9" stroke-linecap="round" opacity=".12"/>
</svg>
